Coordinates
version=1
nRows=29
nColumns=24
inDegrees=yes

Units are S.I. units (second, meters, Newtons, ...)
Angles are in degrees.

endheader
time	pelvis_tilt	pelvis_list	pelvis_rotation	pelvis_tx	pelvis_ty	pelvis_tz	hip_flexion_r	hip_adduction_r	hip_rotation_r	knee_angle_r	ankle_angle_r	subtalar_angle_r	mtp_angle_r	hip_flexion_l	hip_adduction_l	hip_rotation_l	knee_angle_l	ankle_angle_l	subtalar_angle_l	mtp_angle_l	lumbar_extension	lumbar_bending	lumbar_rotation
      4.47000000	     -9.73917716	     -1.60652459	     -4.90076417	     -1.46292455	     -0.00353369	     -0.65894007	      5.78692766	      5.42691242	     -6.15777001	     -8.01155037	      5.21046720	     -7.36536933	      4.27864366	     33.10823453	     -7.41656487	    -18.69359591	    -44.65193144	      0.97268760	    -12.90354134	     -4.04405070	      5.00748999	      5.08402601	      1.18725024
      4.47500000	     -9.92490080	     -1.61865923	     -4.93265855	     -1.45811435	     -0.00417997	     -0.65861864	      5.63395778	      5.46117979	     -6.13746467	     -7.95930968	      5.40912082	     -7.36235121	      4.32597425	     33.46822485	     -7.37694801	    -19.06486369	    -43.10418700	      1.12923230	    -12.73108625	     -4.16448089	      5.14144854	      5.06740260	      1.27469835
      4.48000000	    -10.02624069	     -1.62096588	     -5.00901173	     -1.45326208	     -0.00474631	     -0.65827003	      5.38820264	      5.47343877	     -6.13265875	     -7.90973950	      5.65813109	     -7.19795999	      4.40940948	     33.68241765	     -7.34053360	    -19.50784075	    -41.49219007	      1.32623905	    -12.45965191	     -4.39396974	      5.18767486	      5.03624874	      1.47088406
      4.48500000	    -10.10127177	     -1.63117298	     -5.02186621	     -1.44839404	     -0.00530541	     -0.65803856	      5.11162018	      5.47933689	     -6.21435963	     -7.85875072	      5.89400569	     -7.02321981	      4.49739602	     33.84952250	     -7.26070377	    -19.89681219	    -39.83031303	      1.53682045	    -12.06234496	     -4.60977695	      5.20610028	      5.00575858	      1.56497238
      4.49000000	    -10.24057186	     -1.66208494	     -4.97459642	     -1.44357022	     -0.00597016	     -0.65787360	      4.90950587	      5.51425657	     -6.32073804	     -7.81252565	      6.08895020	     -6.99286824	      4.54066359	     34.08650740	     -7.15675612	    -20.19162953	    -38.13452515	      1.66092589	    -11.62794861	     -4.68081352	      5.28726835	      4.98796690	      1.54416089
      4.49500000	    -10.28954892	     -1.67979720	     -5.01210412	     -1.43866176	     -0.00654202	     -0.65764292	      4.60942439	      5.52154607	     -6.43618604	     -7.77759237	      6.35074744	     -6.70410920	      4.65366081	     34.15688079	     -7.08877684	    -20.63093373	    -36.39226684	      1.88944444	    -10.98476936	     -4.68764255	      5.27878436	      4.96381585	      1.69131946
      4.50000000	    -10.36618851	     -1.70196386	     -4.98436840	     -1.43376359	     -0.00717162	     -0.65750809	      4.33904033	      5.53131432	     -6.59815733	     -7.73912253	      6.58563473	     -6.50439527	      4.76850109	     34.25384685	     -6.97118380	    -20.97570506	    -34.62131585	      2.05480929	    -10.28429586	     -4.56427535	      5.29910963	      4.93729600	      1.73133073
      4.50500000	    -10.43307465	     -1.72307058	     -4.96469139	     -1.42886643	     -0.00780577	     -0.65738828	      4.06962558	      5.53767126	     -6.79360917	     -7.71991204	      6.81798446	     -6.29112526	      4.91189717	     34.31345257	     -6.84745166	    -21.31517621	    -32.82324768	      2.19995497	     -9.48044830	     -4.23299220	      5.30316286	      4.90441656	      1.78753528
      4.51000000	    -10.50930878	     -1.75512667	     -4.93445479	     -1.42389400	     -0.00847135	     -0.65729036	      3.79209255	      5.55376468	     -6.96690425	     -7.67956964	      7.04083145	     -6.05736653	      5.05396538	     34.36809440	     -6.73194094	    -21.67018005	    -31.02805281	      2.34359091	     -8.56604466	     -3.73530753	      5.33291849	      4.88393855	      1.80753867
      4.51500000	    -10.45493280	     -1.71727362	     -4.91171985	     -1.41885395	     -0.00898638	     -0.65726596	      3.37978750	      5.46575904	     -7.20127275	     -7.64183090	      7.29309189	     -5.70652271	      5.51492866	     34.20072034	     -6.50129575	    -21.99123883	    -29.05977799	      2.01379341	     -7.91920988	     -1.77878464	      5.22534272	      4.78829461	      1.88071827
      4.52000000	    -10.61782030	     -1.79267702	     -4.86510309	     -1.41385998	     -0.00978207	     -0.65719824	      3.20282980	      5.54262871	     -7.38567998	     -7.61989088	      7.44180358	     -5.59906393	      5.56807242	     34.35349967	     -6.42367220	    -22.28694512	    -27.33888522	      2.22931891	     -6.76754881	     -1.25454855	      5.34657151	      4.81062853	      1.86465823
      4.52500000	    -10.59090199	     -1.76695933	     -4.84931030	     -1.40876889	     -0.01033774	     -0.65714957	      2.82610622	      5.47742575	     -7.59539645	     -7.60180008	      7.64390581	     -5.33915353	      5.92423757	     34.18596490	     -6.21104358	    -22.58768601	    -25.36737982	      1.72729172	     -6.05834937	      1.66505052	      5.27080386	      4.72303984	      1.93610726
      4.53000000	    -10.65901262	     -1.72513330	     -4.83419729	     -1.40364489	     -0.01095157	     -0.65715318	      2.54898553	      5.40250320	     -7.72114607	     -7.58799820	      7.83987997	     -5.11925181	      5.95174843	     34.16876430	     -5.98498019	    -22.89020151	    -23.62241305	      1.89561089	     -4.98543920	      2.06706995	      5.31078040	      4.62759949	      1.96087019
      4.53500000	    -10.52423294	     -1.59696648	     -4.84056991	     -1.39849531	     -0.01131313	     -0.65717391	      2.08291377	      5.19809964	     -7.95133050	     -7.61956257	      8.10617837	     -4.70318864	      6.24334308	     33.84334572	     -5.63419128	    -23.12590004	    -21.68942810	      1.48812954	     -4.35556133	      4.46222332	      5.12704835	      4.43150347	      2.08113765
      4.54000000	    -10.56811145	     -1.54098373	     -4.81829608	     -1.39335119	     -0.01187215	     -0.65715343	      1.79783220	      5.10351462	     -8.11547406	     -7.63836294	      8.28212177	     -4.46524717	      6.29266748	     33.80810410	     -5.39273807	    -23.33581026	    -20.07932130	      1.70836009	     -3.28233308	      5.03904955	      5.14415006	      4.30567867	      2.10745611
      4.54500000	    -10.51103160	     -1.39633193	     -4.76382465	     -1.38821616	     -0.01227200	     -0.65726852	      1.43165419	      4.87814454	     -8.33844150	     -7.69498316	      8.49694559	     -4.10133390	      6.59979506	     33.61941004	     -4.99944386	    -23.40869773	    -18.34471662	      1.31862409	     -2.78704450	      7.27460065	      5.04743149	      4.08942091	      2.13180615
      4.55000000	    -10.51020377	     -1.26176422	     -4.75647496	     -1.38309252	     -0.01272384	     -0.65729787	      1.13708730	      4.68056041	     -8.44468434	     -7.77735722	      8.68245193	     -3.85590039	      6.62366953	     33.54893863	     -4.67429285	    -23.50824568	    -16.90316227	      1.51550532	     -1.97300726	      7.60742166	      5.00807798	      3.88490591	      2.19769200
      4.55500000	    -10.47215211	     -1.11586053	     -4.71062442	     -1.37794329	     -0.01314092	     -0.65737792	      0.80973489	      4.45801318	     -8.62082289	     -7.87898479	      8.89346845	     -3.52198863	      6.67126626	     33.44935705	     -4.31081518	    -23.46578032	    -15.54507500	      1.60218009	     -1.35751204	      8.06781628	      4.93761884	      3.65478994	      2.21672556
      4.56000000	    -10.47336038	     -0.97368275	     -4.67156289	     -1.37277516	     -0.01360762	     -0.65745700	      0.53393266	      4.24171544	     -8.76419528	     -7.99835633	      9.07973000	     -3.23193436	      6.72714945	     33.40983373	     -3.96662892	    -23.33564087	    -14.31472776	      1.65555874	     -0.85799378	      8.48555542	      4.90416656	      3.43089353	      2.24214737
      4.56500000	    -10.45812074	     -0.83536823	     -4.63852799	     -1.36756982	     -0.01408940	     -0.65757188	      0.25629281	      4.02073884	     -8.88022032	     -8.15910543	      9.27083340	     -2.94064192	      6.77876746	     33.36354044	     -3.63495102	    -23.13793259	    -13.21298991	      1.73433803	     -0.45407667	      8.84518834	      4.86289237	      3.21419723	      2.26570749
      4.57000000	    -10.53305897	     -0.71778456	     -4.59893231	     -1.36232850	     -0.01468361	     -0.65767895	      0.07309378	      3.83776382	     -8.87460630	     -8.32030255	      9.39206042	     -2.83765870	      6.79638665	     33.44297446	     -3.34310026	    -22.85911910	    -12.27731946	      1.81841348	     -0.10518821	      8.96068382	      4.92347107	      3.01933978	      2.25886679
      4.57500000	    -10.44358828	     -0.56240735	     -4.59703240	     -1.35702135	     -0.01510434	     -0.65776235	     -0.26283365	      3.58319260	     -9.02015265	     -8.53448784	      9.60621904	     -2.44567203	      6.78664406	     33.31646745	     -3.02920132	    -22.56829448	    -11.41902932	      1.87921922	      0.17487692	      9.13760714	      4.81092941	      2.77540882	      2.34654626
      4.58000000	    -10.49229858	     -0.44089102	     -4.58196747	     -1.35165186	     -0.01571149	     -0.65785909	     -0.45654302	      3.38671782	     -8.98967268	     -8.74619421	      9.72656058	     -2.32250296	      6.78195145	     33.37644458	     -2.77270313	    -22.22332661	    -10.74946209	      1.95145331	      0.43771512	      9.20310523	      4.86375193	      2.57411969	      2.36037223
      4.58500000	    -10.41434492	     -0.29740459	     -4.59209986	     -1.34625787	     -0.01619871	     -0.65796488	     -0.75756277	      3.14005437	     -9.07382043	     -9.01982563	      9.92328724	     -1.98222563	      6.70171478	     33.28251233	     -2.50146173	    -21.82877356	    -10.17311438	      1.98562950	      0.59540766	      9.25087475	      4.77733499	      2.34522732	      2.45580928
      4.59000000	    -10.45550619	     -0.18763761	     -4.60304139	     -1.34075257	     -0.01684199	     -0.65805057	     -0.94443974	      2.95223139	     -8.99605506	     -9.27817940	     10.01949657	     -1.88597640	      6.67137475	     33.34211203	     -2.29693263	    -21.44165649	     -9.77552775	      2.04989603	      0.80416424	      9.27830722	      4.84226919	      2.15886775	      2.50261038
      4.59500000	    -10.48139416	     -0.10090715	     -4.62957652	     -1.33527327	     -0.01751334	     -0.65813434	     -1.12575542	      2.78645065	     -8.90200900	     -9.57721452	     10.10205413	     -1.81582527	      6.65617663	     33.40831564	     -2.13995094	    -21.02403276	     -9.54571377	      2.12425048	      0.99681061	      9.31551411	      4.87393553	      1.99412651	      2.62381048
      4.60000000	    -10.38895959	      0.09140337	     -4.65604216	     -1.32958654	     -0.01802434	     -0.65828455	     -1.41870531	      2.47067989	     -8.92193585	     -9.93359937	     10.28942286	     -1.46396241	      6.43430445	     33.28679160	     -1.84984443	    -20.59900831	     -9.32084180	      2.04634815	      0.98114197	      9.25075917	      4.82099218	      1.71358959	      2.67474876
      4.60500000	    -10.39856464	      0.16396541	     -4.69681570	     -1.32395239	     -0.01873508	     -0.65838858	     -1.60256373	      2.31223391	     -8.81468851	    -10.28252475	     10.34064713	     -1.39445763	      6.37903928	     33.34751931	     -1.73425578	    -20.16491858	     -9.36541314	      2.11565469	      1.11055692	      9.28311402	      4.85974385	      1.56045365	      2.80529142
      4.61000000	    -10.35036323	      0.31681553	     -4.73369518	     -1.31821322	     -0.01936221	     -0.65858068	     -1.81914892	      2.04128370	     -8.75903193	    -10.71241420	     10.50708307	     -1.12025741	      5.97677064	     33.30320074	     -1.50838188	    -19.65039200	     -9.42587097	      1.97599187	      0.94842662	      9.16067317	      4.85673561	      1.33276977	      2.89159527
